<svg xmlns="http://www.w3.org/2000/svg" enable-background="new 0 0 512 512" viewBox="0 0 512 512" id="web-error">
  <g>
    <g>
      <linearGradient id="a" x1="285.521" x2="226.015" y1="-214.7" y2="892.124" gradientUnits="userSpaceOnUse">
        <stop offset="0" stop-color="#eae9fe"></stop>
        <stop offset=".424" stop-color="#eeeefe"></stop>
        <stop offset=".897" stop-color="#fbfbff"></stop>
        <stop offset="1" stop-color="#fff"></stop>
      </linearGradient>
      <path fill="url(#a)" d="M472.914,264.434c-9.683-7.535-21.378-14.027-25.882-25.439
			c-6.125-15.52,3.665-32.176,9.439-47.831c17.628-47.798-4.997-104.402-45.589-135.186
			C333.444-2.749,182.282,17.836,161.159,99.006c-8.936,34.337,7.074,73.513-9.306,104.987
			c-20.667,39.713-75.492,42.391-110.802,60.05c-43.746,21.878-52.499,69.515-21.125,105.783
			c11.521,13.318,26.263,22.493,36.829,37.044c15.288,21.055,23.863,44.338,44.319,61.705c28.805,24.456,76.964,30.52,102.464,2.636
			c14.359-15.702,19.032-38.836,34.706-53.226c20.633-18.942,53.243-16.394,79.499-6.639c26.255,9.754,50.606,25.505,78.261,29.944
			c43.239,6.94,89.601-18.431,107.066-58.591S507.476,291.328,472.914,264.434z"></path>
      <path fill="#ededed" d="M503.64,118.991v326.608c0,16.78-13.603,30.382-30.382,30.382H47.907
			c-16.78,0-30.382-13.603-30.382-30.382V118.991H503.64z"></path>
      <path fill="#2769fd" d="M503.64,118.991V65.787c0-16.78-13.603-30.382-30.382-30.382H47.907
			c-16.78,0-30.382,13.603-30.382,30.382v53.204H503.64z"></path>
      <circle cx="74.287" cy="77.198" r="17.157" fill="#ededed"></circle>
      <circle cx="129.244" cy="77.198" r="17.157" fill="#ededed"></circle>
      <circle cx="184.202" cy="77.198" r="17.157" fill="#ededed"></circle>
      <path fill="#ededed" d="M442.991,88.592H279.687c-6.294,0-11.393-5.101-11.393-11.393s5.1-11.393,11.393-11.393h163.304
			c6.294,0,11.393,5.101,11.393,11.393S449.285,88.592,442.991,88.592z"></path>
      <path fill="#f9bb40" d="M392.092,447.635H129.073c-33.328,0-53.944-36.249-36.935-64.895l131.509-221.316
			c16.665-28.003,57.208-28.003,73.872,0l131.51,221.316C446.036,411.386,425.42,447.635,392.092,447.635z"></path>
      <path fill="#ff5859" d="M129.071,414.967c-5.214,0-7.843-3.252-8.946-5.191c-1.107-1.944-2.561-5.87,0.1-10.359
			L251.731,178.11c2.598-4.366,6.663-5.02,8.851-5.02c2.192,0,6.257,0.654,8.869,5.041l131.493,221.295
			c2.657,4.48,1.203,8.409,0.096,10.35c-1.103,1.939-3.733,5.191-8.946,5.191H129.071z"></path>
      <path fill="#ededed" d="M273.747 359.016c0 7.268-5.893 13.161-13.161 13.161-7.268 0-13.161-5.893-13.161-13.161 0-7.268 5.893-13.16 13.161-13.16C267.854 345.855 273.747 351.748 273.747 359.016zM258.949 328.025l-13.324-74.033c-1.487-8.263 4.006-16.167 12.268-17.654 8.263-1.487 16.167 4.006 17.654 12.268.327 1.814.302 3.669 0 5.385l-13.324 74.033c-.163.904-1.027 1.505-1.932 1.342C259.589 329.241 259.07 328.687 258.949 328.025z"></path>
      <path fill="#332e8e" d="M473.258,30.494H47.907c-19.461,0-35.293,15.832-35.293,35.293c0,79.419,0,300.143,0,379.812
			c0,19.461,15.832,35.293,35.293,35.293h425.351c19.461,0,35.293-15.832,35.293-35.293c0-79.669,0-300.33,0-379.812
			C508.551,46.326,492.719,30.494,473.258,30.494z M498.73,445.598c0,14.045-11.426,25.471-25.471,25.471H47.907
			c-14.045,0-25.471-11.426-25.471-25.471V123.9H498.73V445.598z M498.73,114.079H22.436V65.786
			c0-14.045,11.426-25.471,25.471-25.471h425.351c14.045,0,25.471,11.426,25.471,25.471V114.079z"></path>
      <path fill="#332e8e" d="M74.287 55.131c-12.168 0-22.068 9.898-22.068 22.066s9.9 22.07 22.068 22.07 22.068-9.901 22.068-22.07S86.455 55.131 74.287 55.131zM74.287 89.445c-6.752 0-12.246-5.496-12.246-12.248 0-6.752 5.494-12.245 12.246-12.245 6.752 0 12.246 5.493 12.246 12.245C86.533 83.949 81.039 89.445 74.287 89.445zM129.245 55.131c-12.168 0-22.068 9.898-22.068 22.066s9.9 22.07 22.068 22.07 22.068-9.901 22.068-22.07S141.413 55.131 129.245 55.131zM129.245 89.445c-6.752 0-12.246-5.496-12.246-12.248 0-6.752 5.494-12.245 12.246-12.245 6.752 0 12.246 5.493 12.246 12.245C141.491 83.949 135.997 89.445 129.245 89.445zM184.203 55.131c-12.168 0-22.068 9.898-22.068 22.066s9.9 22.07 22.068 22.07c12.168 0 22.066-9.901 22.066-22.07S196.371 55.131 184.203 55.131zM184.203 89.445c-6.752 0-12.246-5.496-12.246-12.248 0-6.752 5.494-12.245 12.246-12.245 6.752 0 12.245 5.493 12.245 12.245C196.448 83.949 190.955 89.445 184.203 89.445zM442.992 60.895H279.687c-8.99 0-16.305 7.312-16.305 16.302s7.315 16.305 16.305 16.305h163.304c8.99 0 16.304-7.315 16.304-16.305S451.982 60.895 442.992 60.895zM442.992 83.681H279.687c-3.574 0-6.484-2.909-6.484-6.484 0-3.574 2.909-6.481 6.484-6.481h163.304c3.574 0 6.482 2.906 6.482 6.481C449.474 80.771 446.566 83.681 442.992 83.681zM129.074 452.545h263.019c17.434 0 32.988-9.038 41.607-24.18 8.621-15.145 8.455-33.138-.449-48.135L301.739 158.911c-8.72-14.652-24.106-23.4-41.156-23.4s-32.436 8.747-41.158 23.403L87.916 380.233c-8.904 14.994-9.072 32.988-.451 48.132C96.084 443.507 111.638 452.545 129.074 452.545zM96.359 385.25l131.508-221.312c6.931-11.65 19.162-18.604 32.716-18.604s25.785 6.954 32.714 18.601l131.508 221.312c7.078 11.922 7.211 26.223.36 38.26-6.85 12.034-19.213 19.218-33.072 19.218H129.074c-13.859 0-26.223-7.184-33.072-19.218C89.148 411.469 89.283 397.165 96.359 385.25z"></path>
      <path fill="#332e8e" d="M129.072,419.877h263.02c5.624,0,10.44-2.794,13.214-7.667c2.781-4.882,2.73-10.454-0.141-15.295
			L273.672,175.623c-2.813-4.732-7.585-7.443-13.089-7.443c-5.502,0-10.267,2.705-13.073,7.42L116.002,396.913
			c-2.873,4.84-2.924,10.416-0.145,15.295C118.632,417.083,123.448,419.877,129.072,419.877z M124.447,401.926L255.952,180.62
			c1.034-1.736,2.593-2.618,4.631-2.618c2.041,0,3.605,0.889,4.647,2.641l131.49,221.29c0.396,0.665,1.6,2.698,0.051,5.416
			c-1.541,2.708-3.902,2.708-4.679,2.708h-263.02c-0.777,0-3.138,0-4.681-2.711C122.844,404.631,124.053,402.591,124.447,401.926z"></path>
      <path fill="#332e8e" d="M260.586 340.944c-9.965 0-18.072 8.105-18.072 18.07 0 9.965 8.106 18.073 18.072 18.073 9.965 0 18.072-8.108 18.072-18.073C278.658 349.049 270.551 340.944 260.586 340.944zM260.586 367.266c-4.549 0-8.25-3.702-8.25-8.252s3.701-8.249 8.25-8.249 8.25 3.699 8.25 8.249S265.136 367.266 260.586 367.266zM254.117 328.895c0 .006.002.013.002.016.492 2.676 2.618 4.802 5.301 5.291.395.07.79.105 1.181.105 1.328 0 2.623-.403 3.737-1.18 1.442-1.001 2.407-2.503 2.718-4.233l13.329-74.051c.411-2.34.411-4.799-.005-7.107-1.963-10.915-12.435-18.175-23.355-16.232-10.913 1.963-18.196 12.443-16.232 23.358L254.117 328.895zM258.764 241.173c.614-.112 1.224-.163 1.827-.163 4.882 0 9.228 3.498 10.122 8.463.213 1.183.213 2.452.002 3.651l-10.128 56.272-10.128-56.272C249.454 247.538 253.18 242.177 258.764 241.173z"></path>
    </g>
  </g>
</svg>